<svg height="320" version="1.1" width="320" xmlns="http://www.w3.org/2000/svg" xmlns:xlink="http://www.w3.org/1999/xlink" style="overflow: hidden; position: relative; left: -0.5px; top: -0.796875px;" viewBox="0 0 320 320" preserveAspectRatio="xMidYMid meet" id="main_svg"><svg height="320" version="1.1" width="320" xmlns="http://www.w3.org/2000/svg" xmlns:xlink="http://www.w3.org/1999/xlink" style="overflow: hidden; position: relative;" viewBox="0 0 160 160" preserveAspectRatio="xMidYMid meet" id="imported_svg_layer_1"><path fill="#000000" stroke="none" d="M120.038,0H39.962C17.892,0,0,17.888,0,39.962V120.038C0,142.108,17.888,160,39.962,160H120.038C142.108,160,160,142.112,160,120.038V39.962C160,17.892,142.112,0,120.038,0Z" stroke-width="0" transform="matrix(1,0,0,1,0,0)" style="-webkit-tap-highlight-color: rgba(0, 0, 0, 0);"></path><desc style="-webkit-tap-highlight-color: rgba(0, 0, 0, 0);">Created with Logotizer</desc><defs style="-webkit-tap-highlight-color: rgba(0, 0, 0, 0);"></defs></svg><svg height="320" version="1.1" width="320" xmlns="http://www.w3.org/2000/svg" xmlns:xlink="http://www.w3.org/1999/xlink" style="overflow: hidden; position: relative;" viewBox="0 0 160 160" preserveAspectRatio="xMidYMid meet" id="imported_svg_layer_2"><desc style="-webkit-tap-highlight-color: rgba(0, 0, 0, 0);">Created with Logotizer</desc><defs style="-webkit-tap-highlight-color: rgba(0, 0, 0, 0);"></defs><path fill="#ffffff" stroke="#d5d5d5" d="M160,90L80,20L0,90H40V160H120V90H160" stroke-width="2" transform="matrix(1,0,0,1,0,0)" style="-webkit-tap-highlight-color: rgba(0, 0, 0, 0); display: none; cursor: move;"></path></svg><desc style="-webkit-tap-highlight-color: rgba(0, 0, 0, 0);">Created with Logotizer</desc><defs style="-webkit-tap-highlight-color: rgba(0, 0, 0, 0);"></defs><path fill="#ffffff" stroke="none" d="M58.8,-148.68Q58.8,-148.68,61.44,-144.06Q64.08,-139.44,64.08,-126.48Q64.08,-113.52,59.52,-103.2Q54.96,-92.88,48.36,-87Q41.76,-81.12,33.12,-77.28Q24.48,-73.44,17.28,-72.12Q10.08,-70.8,3.36,-70.8Q-17.52,-70.8,-26.88,-74.88L-26.88,-20.16Q-26.88,-7.68,-19.44,-7.68Q-16.08,-7.68,-16.08,-4.8Q-16.08,0,-25.2,0L-50.64,0Q-59.76,0,-59.76,-4.8Q-59.76,-7.68,-56.64,-7.68Q-49.2,-7.68,-49.2,-20.16L-49.2,-150.96Q-49.2,-163.2,-56.88,-163.2Q-59.76,-163.2,-59.76,-166.32Q-59.76,-171.12,-50.88,-171.12L7.92,-171.12Q17.76,-171.12,26.76,-169.08Q35.76,-167.04,44.64,-162.48Q53.52,-157.92,58.8,-148.68M40.32,-121.44Q40.32,-160.32,-1.44,-160.32Q-18,-160.32,-22.44,-158.76Q-26.88,-157.2,-26.88,-149.28L-26.88,-96Q-26.88,-81.84,0,-81.84Q40.32,-81.84,40.32,-121.44Z" transform="matrix(1,0,0,1,166,242.1953)" style="-webkit-tap-highlight-color: rgba(0, 0, 0, 0);"></path></svg>